<svg width="568" height="120" viewBox="0 0 568 120" fill="none" xmlns="http://www.w3.org/2000/svg">
<path fill-rule="evenodd" clip-rule="evenodd" d="M60 99.9999C54.1452 99.9999 48.5842 98.742 43.5724 96.4817L43.5386 96.4664C42.8465 96.1535 42.1649 95.8215 41.4945 95.471C38.5987 93.9571 35.9113 92.099 33.4866 89.951C27.1156 84.3071 22.5584 76.6617 20.8001 67.9999C20.2754 65.415 20 62.7397 20 59.9999C20 58.6499 20.067 57.3156 20.1976 55.9999C21.3606 44.2867 27.5764 34.06 36.6345 27.5302C38.005 26.5422 39.4407 25.6388 40.9337 24.8278C42.9648 23.7244 45.1022 22.7918 47.3265 22.0494C51.3091 20.72 55.5705 20 60 20C64.4874 20 68.8021 20.7389 72.8292 22.1017C76.6295 23.3877 80.1737 25.2293 83.3651 27.5299C92.4235 34.0596 98.6395 44.2865 99.8025 55.9999C99.9331 57.3156 100 58.65 100 59.9999C100 62.4162 99.7857 64.7824 99.3752 67.0806C99.3203 67.3883 99.2618 67.6947 99.1998 67.9999C97.4415 76.6619 92.8842 84.3075 86.513 89.9515C83.5271 92.5966 80.1428 94.802 76.4615 96.4664L76.427 96.482C71.4155 98.7421 65.8546 99.9999 60 99.9999ZM93.7672 55.9999H77.3034C66.5262 55.9999 59.7904 67.6666 65.179 76.9999L73.4085 91.2538C69.2944 93.0211 64.7615 93.9999 60 93.9999C55.2383 93.9999 50.7052 93.021 46.591 91.2535L54.8203 76.9999C60.2088 67.6666 53.4731 55.9999 42.6959 55.9999H26.2329C27.3457 46.5049 32.3708 38.2058 39.6528 32.758L47.8754 47C53.264 56.3333 66.7354 56.3333 72.124 47L80.3468 32.7576C87.6291 38.2054 92.6544 46.5047 93.7672 55.9999ZM44.428 70.9999L36.5597 84.6282C31.9042 80.1959 28.5039 74.4572 26.9466 67.9999H42.6959C44.2355 67.9999 45.1978 69.6666 44.428 70.9999ZM93.0535 67.9999L77.3034 67.9999C75.7638 67.9999 74.8015 69.6666 75.5713 70.9999L83.4399 84.6287C88.0956 80.1963 91.4961 74.4574 93.0535 67.9999ZM60 26C56.6665 26 53.4449 26.4798 50.4007 27.374L58.2677 41C59.0375 42.3333 60.9619 42.3333 61.7317 41L69.5988 27.3738C66.5548 26.4797 63.3334 26 60 26Z" fill="#FFAA00"/>
<path d="M124 92.1001H137.552V73.6201H147.848C161.664 73.6201 172.752 66.2281 172.752 51.9721V51.7961C172.752 39.2121 163.864 30.5001 149.168 30.5001H124V92.1001ZM137.552 61.5641V42.7321H148.024C154.8 42.7321 159.024 45.9881 159.024 52.0601V52.2361C159.024 57.5161 155.064 61.5641 148.288 61.5641H137.552Z" fill="#FFAA00"/>
<path d="M199.688 93.1561C214.384 93.1561 225.296 82.1561 225.296 68.6041V68.4281C225.296 54.8761 214.472 44.0521 199.864 44.0521C185.168 44.0521 174.256 55.0521 174.256 68.6041V68.7801C174.256 82.3321 185.08 93.1561 199.688 93.1561ZM199.864 81.6281C192.472 81.6281 187.456 75.5561 187.456 68.6041V68.4281C187.456 61.4761 192.032 55.5801 199.688 55.5801C207.08 55.5801 212.096 61.6521 212.096 68.6041V68.7801C212.096 75.7321 207.52 81.6281 199.864 81.6281Z" fill="#FFAA00"/>
<path d="M231.197 92.1001H244.573V27.8601H231.197V92.1001Z" fill="#FFAA00"/>
<path d="M252.736 92.1001H266.112V77.7561L270.776 72.8281L283.096 92.1001H298.408L279.84 63.5001L297.792 44.9321H281.776L266.112 62.0921V27.8601H252.736V92.1001Z" fill="#FFAA00"/>
<path d="M312.93 92.9801C319.442 92.9801 323.93 90.6041 327.186 86.9961V92.1001H340.122V64.7321C340.122 58.3961 338.538 53.2041 335.018 49.6841C331.674 46.3401 326.395 44.4041 319.09 44.4041C311.082 44.4041 305.978 45.9001 300.786 48.1881L304.13 58.3961C308.442 56.8121 312.05 55.8441 317.154 55.8441C323.842 55.8441 327.274 58.9241 327.274 64.4681V65.2601C323.93 64.1161 320.498 63.3241 315.746 63.3241C304.57 63.3241 296.738 68.0761 296.738 78.3721V78.5481C296.738 87.8761 304.042 92.9801 312.93 92.9801ZM316.979 83.7401C312.667 83.7401 309.674 81.6281 309.674 78.0201V77.8441C309.674 73.6201 313.194 71.3321 318.914 71.3321C322.17 71.3321 325.163 72.0361 327.451 73.0921V75.4681C327.451 80.3081 323.227 83.7401 316.979 83.7401Z" fill="#FFAA00"/>
<path d="M365.265 92.5401H377.233L402.137 30.5001H387.529L371.425 73.8841L355.321 30.5001H340.361L365.265 92.5401Z" fill="#FFAA00"/>
<path d="M413.021 92.9801C419.533 92.9801 424.021 90.6041 427.277 86.9961V92.1001H440.213V64.7321C440.213 58.3961 438.629 53.2041 435.109 49.6841C431.765 46.3401 426.485 44.4041 419.181 44.4041C411.173 44.4041 406.069 45.9001 400.877 48.1881L404.221 58.3961C408.533 56.8121 412.141 55.8441 417.245 55.8441C423.933 55.8441 427.365 58.9241 427.365 64.4681V65.2601C424.021 64.1161 420.589 63.3241 415.837 63.3241C404.661 63.3241 396.829 68.0761 396.829 78.3721V78.5481C396.829 87.8761 404.133 92.9801 413.021 92.9801ZM417.069 83.7401C412.757 83.7401 409.765 81.6281 409.765 78.0201V77.8441C409.765 73.6201 413.285 71.3321 419.005 71.3321C422.261 71.3321 425.253 72.0361 427.541 73.0921V75.4681C427.541 80.3081 423.317 83.7401 417.069 83.7401Z" fill="#FFAA00"/>
<path d="M462.987 92.9801C469.763 92.9801 473.723 89.3721 476.803 85.4121V92.1001H490.179V44.9321H476.803V71.2441C476.803 77.5801 473.547 80.8361 468.443 80.8361C463.339 80.8361 460.347 77.5801 460.347 71.2441V44.9321H446.971V75.4681C446.971 86.2921 452.867 92.9801 462.987 92.9801Z" fill="#FFAA00"/>
<path d="M498.367 92.1001H511.743V27.8601H498.367V92.1001Z" fill="#FFAA00"/>
<path d="M535.834 92.8921C540.322 92.8921 543.578 91.8361 546.394 90.1641V79.4281C544.458 80.4841 542.258 81.1001 539.794 81.1001C536.802 81.1001 535.482 79.6041 535.482 76.5241V56.3721H546.57V44.9321H535.482V32.8761H522.106V44.9321H516.474V56.3721H522.106V78.7241C522.106 89.6361 527.65 92.8921 535.834 92.8921Z" fill="#FFAA00"/>
</svg>
